<?xml version="1.0" standalone="no"?>
<!DOCTYPE svg PUBLIC "-//W3C//DTD SVG 20010904//EN"
 "http://www.w3.org/TR/2001/REC-SVG-20010904/DTD/svg10.dtd">
<svg version="1.0" xmlns="http://www.w3.org/2000/svg"
 width="1101.000000pt" height="1101.000000pt" viewBox="0 0 1101.000000 1101.000000"
 preserveAspectRatio="xMidYMid meet">

<g transform="translate(0.000000,1101.000000) scale(0.100000,-0.100000)"
fill="#000000" stroke="none">
<path d="M7152 8559 c-1 -91 -5 -169 -9 -173 -4 -4 -8 -59 -8 -121 0 -93 -4
-117 -18 -133 -9 -10 -17 -24 -17 -30 0 -7 -16 -12 -40 -12 l-40 0 0 -295 0
-295 40 0 40 0 0 295 0 295 55 0 c59 0 70 13 38 45 -13 14 -17 39 -18 133 0
65 -4 124 -8 132 -4 8 -8 85 -10 170 l-3 155 -2 -166z"/>
<path d="M3452 8558 c-1 -86 -6 -159 -11 -162 -5 -4 -9 -61 -9 -128 0 -85 -3
-123 -12 -126 -6 -2 -15 -15 -20 -28 -7 -17 -17 -24 -37 -24 -55 0 -54 6 -51
-301 l3 -284 40 0 c28 0 40 4 41 15 1 8 2 140 2 293 l2 277 55 0 c30 0 55 3
55 6 0 4 -9 21 -19 38 -16 25 -19 50 -19 136 0 58 -2 112 -6 120 -3 8 -7 85
-9 170 l-3 155 -2 -157z"/>
<path d="M4910 7725 l0 -405 405 0 405 0 0 405 0 405 -405 0 -405 0 0 -405z
m780 0 l0 -375 -375 0 -375 0 0 375 0 375 375 0 375 0 0 -375z"/>
<path d="M5300 7869 c0 -85 -3 -114 -15 -125 -24 -24 -1 -58 34 -51 20 4 40
-2 72 -24 24 -16 48 -29 54 -29 5 0 -16 16 -48 36 -31 21 -57 42 -57 49 0 7
-7 18 -16 25 -12 11 -15 33 -12 122 2 59 0 108 -4 108 -5 0 -8 -50 -8 -111z"/>
<path d="M2440 5910 l0 -1310 173 0 172 0 28 -60 c15 -33 32 -60 38 -60 5 0
29 -14 52 -32 l42 -31 0 -76 c1 -94 22 -139 96 -204 89 -78 192 -129 399 -196
126 -41 157 -46 164 -23 10 32 89 99 155 133 69 34 239 89 278 89 27 0 28 2 9
38 -18 33 -83 96 -158 152 -32 23 -55 47 -51 53 3 6 1 7 -6 3 -15 -10 -147 89
-237 179 -49 48 -77 85 -89 117 -20 54 -19 57 48 211 l12 28 30 -48 c17 -26
68 -87 115 -135 75 -78 89 -88 120 -88 42 0 187 50 333 115 113 50 117 54 97
112 l-11 30 -137 -27 c-75 -16 -159 -31 -187 -34 l-50 -7 -58 123 c-62 132
-156 279 -198 310 -34 25 -219 70 -224 54 -2 -6 -11 -38 -20 -71 -9 -33 -26
-88 -37 -123 -20 -62 -21 -63 -39 -46 -11 10 -56 71 -100 136 -44 65 -85 118
-91 118 -36 0 -193 -45 -220 -63 -72 -49 -95 -145 -105 -430 l-6 -188 -141 3
-141 3 0 1250 0 1250 908 3 907 2 0 -1120 0 -1120 25 12 25 11 0 1134 0 1133
-960 0 -960 0 0 -1310z m623 -1204 c4 -10 2 -36 -5 -57 -11 -37 -12 -38 -30
-23 -19 18 -25 84 -12 132 l7 23 16 -28 c10 -15 20 -36 24 -47z m318 -420 c48
-20 76 -54 88 -106 13 -56 14 -110 2 -110 -5 0 -33 22 -62 49 -30 28 -65 53
-79 56 -32 8 -70 44 -70 66 0 21 45 59 70 59 10 0 33 -6 51 -14z"/>
<path d="M6150 5910 l0 -1310 210 0 210 0 10 26 c6 14 10 27 10 30 0 2 -85 4
-190 4 l-190 0 0 1255 0 1255 905 0 905 0 3 -842 c1 -481 6 -833 11 -820 4 12
13 22 19 22 6 0 8 3 4 6 -3 4 0 19 8 35 13 24 15 147 15 839 l0 810 -965 0
-965 0 0 -1310z"/>
<path d="M5262 7165 c-11 -25 -6 -31 21 -26 5 1 6 -3 2 -9 -3 -5 -15 -10 -26
-10 -10 0 -19 -5 -19 -10 0 -6 13 -9 30 -8 23 2 31 8 36 31 5 26 -8 57 -26 57
-4 0 -12 -11 -18 -25z"/>
<path d="M5323 7138 c7 -19 -19 -52 -33 -43 -8 5 -5 -55 6 -123 9 -56 24 -80
55 -86 20 -4 29 -11 29 -26 0 -13 12 -25 38 -35 20 -9 43 -23 50 -32 10 -14
12 -8 12 36 0 93 -55 161 -130 161 -23 0 -30 4 -30 20 0 11 5 20 10 20 6 0 10
10 10 23 -1 21 -1 22 -15 3 -14 -18 -15 -18 -15 -2 0 9 7 31 16 48 12 24 13
33 3 42 -9 8 -11 7 -6 -6z"/>
<path d="M5360 7080 l0 -40 40 0 c32 0 40 4 40 18 0 10 9 28 20 40 l21 22 -61
0 -60 0 0 -40z"/>
<path d="M5260 7070 c0 -5 5 -10 10 -10 6 0 10 5 10 10 0 6 -4 10 -10 10 -5 0
-10 -4 -10 -10z"/>
<path d="M5115 7042 c-16 -11 -38 -33 -48 -51 l-18 -31 39 0 c22 0 53 7 68 15
16 8 44 15 63 15 30 0 33 2 28 26 -4 22 -2 25 16 20 12 -3 16 -1 11 4 -6 6
-37 12 -69 16 -49 4 -66 2 -90 -14z"/>
<path d="M4866 7036 c3 -7 -4 -30 -15 -50 -25 -45 -29 -126 -6 -126 11 0 15
12 15 51 0 43 3 52 21 56 15 4 19 11 15 27 -3 11 -6 29 -6 39 0 9 -7 17 -15
17 -8 0 -12 -6 -9 -14z"/>
<path d="M5670 6980 c0 -5 7 -10 15 -10 23 0 18 -26 -10 -48 -18 -15 -22 -23
-13 -28 6 -4 14 -2 16 4 2 7 17 12 33 12 32 0 37 11 14 30 -9 7 -13 21 -10 31
5 15 1 19 -19 19 -14 0 -26 -4 -26 -10z"/>
<path d="M5195 6970 c4 -6 11 -8 16 -5 14 9 11 15 -7 15 -8 0 -12 -5 -9 -10z"/>
<path d="M5150 6949 c-34 -6 -34 -6 -5 -8 29 -1 29 -2 -15 -22 -25 -12 -40
-23 -34 -26 7 -2 9 -13 7 -24 -4 -16 -8 -17 -14 -7 -6 9 -8 6 -6 -10 2 -27 18
-24 32 6 5 13 17 21 25 20 13 -3 54 59 48 72 -2 3 -19 2 -38 -1z"/>
<path d="M5658 6755 l5 -75 -372 0 c-354 0 -371 1 -371 18 0 11 -11 24 -24 30
-14 6 -26 22 -29 41 -4 19 -13 31 -23 31 -13 0 -15 -10 -12 -60 l3 -60 -108 0
c-83 0 -108 -3 -105 -12 3 -8 30 -15 64 -19 75 -7 1272 -1 1285 7 25 15 -12
24 -107 24 -97 0 -104 1 -104 20 0 12 -7 20 -17 20 -29 0 -41 13 -48 53 -6 32
-5 37 11 38 18 0 17 1 -1 9 -48 21 -52 15 -47 -65z"/>
<path d="M8478 6647 c-106 -30 -174 -108 -185 -211 -3 -30 -2 -63 2 -73 6 -14
10 -8 20 27 12 41 13 42 14 14 1 -45 20 -56 78 -47 44 8 48 11 51 38 5 46 22
55 22 12 l0 -37 44 0 c67 0 93 13 101 52 l8 32 11 -34 c20 -63 95 -69 97 -8 1
20 3 25 6 13 15 -66 25 -85 47 -85 31 0 46 -19 46 -57 0 -33 -36 -83 -59 -83
-8 0 -81 -122 -81 -135 0 -3 7 -5 15 -5 25 0 91 74 121 136 24 51 28 71 28
144 0 94 -18 150 -73 219 -64 81 -201 119 -313 88z"/>
<path d="M5087 6543 c-14 -14 -6 -19 23 -15 32 5 41 -13 18 -36 -9 -9 -5 -12
20 -12 18 0 32 5 32 10 0 6 -4 10 -10 10 -18 0 -10 22 10 27 11 3 20 9 20 14
0 10 -103 12 -113 2z"/>
<path d="M4965 6350 c-3 -5 1 -10 9 -10 9 0 16 5 16 10 0 6 -4 10 -9 10 -6 0
-13 -4 -16 -10z"/>
<path d="M8610 6350 c-11 -7 -4 -10 25 -10 29 0 36 3 25 10 -8 5 -19 10 -25
10 -5 0 -17 -5 -25 -10z"/>
<path d="M1418 6324 c-29 -15 -34 -29 -19 -53 11 -17 109 -16 157 1 30 10 31
12 15 28 -40 42 -103 52 -153 24z"/>
<path d="M8369 6323 c-12 -14 -12 -16 0 -8 8 4 28 12 45 16 l31 7 -31 1 c-19
1 -37 -6 -45 -16z"/>
<path d="M8610 6310 c-13 -8 -12 -10 3 -10 13 0 16 -5 11 -24 -4 -17 -1 -25
12 -30 20 -8 44 16 44 43 0 12 3 12 12 3 7 -7 16 -12 21 -12 5 0 -2 9 -16 20
-27 22 -63 26 -87 10z"/>
<path d="M8372 6294 c-12 -8 -22 -20 -22 -26 0 -7 5 -6 14 1 12 10 15 8 18
-11 4 -29 37 -36 55 -12 9 13 10 21 2 31 -9 9 -8 13 0 13 7 0 9 5 6 10 -9 15
-48 12 -73 -6z"/>
<path d="M5350 6266 c0 -46 -3 -46 265 -46 211 0 255 2 265 15 7 8 10 22 6 30
-8 22 -536 23 -536 1z"/>
<path d="M1700 6266 c0 -2 7 -7 16 -10 8 -3 12 -2 9 4 -6 10 -25 14 -25 6z"/>
<path d="M4998 6188 c-3 -9 -59 -13 -191 -16 -150 -4 -187 -7 -187 -18 0 -16
65 -17 873 -17 436 0 515 4 480 26 -5 3 -219 7 -477 9 -359 2 -472 6 -482 15
-9 10 -13 10 -16 1z"/>
<path d="M8485 6140 c-9 -15 13 -26 53 -26 33 0 42 4 42 17 0 14 -9 17 -45 17
-25 -1 -48 -4 -50 -8z"/>
<path d="M966 6028 c-41 -70 -66 -134 -81 -206 -14 -64 -20 -182 -10 -182 2 0
31 26 64 59 79 77 194 132 341 162 77 16 333 17 400 1 117 -28 140 -35 206
-67 43 -21 97 -59 137 -97 l67 -63 0 55 c0 30 -4 60 -8 65 -18 25 -96 78 -159
107 -37 17 -70 34 -73 37 -3 3 -9 6 -15 7 -19 2 -130 37 -140 44 -41 29 -375
36 -553 13 -43 -6 -72 -5 -91 3 -29 12 -63 68 -54 91 11 28 -7 11 -31 -29z"/>
<path d="M8747 6046 c-30 -17 -37 -26 -35 -46 3 -21 13 -28 72 -47 38 -13 72
-21 75 -18 6 6 -60 136 -69 134 -3 -1 -22 -11 -43 -23z"/>
<path d="M3128 6003 c-49 -28 -70 -70 -42 -86 8 -4 14 -19 14 -32 0 -28 15
-33 24 -9 10 25 7 34 -9 34 -8 0 -15 5 -15 10 0 18 29 10 35 -10 5 -16 14 -19
48 -18 23 1 36 3 29 6 -12 4 -18 32 -6 32 9 0 34 -28 34 -38 0 -5 9 -12 20
-15 10 -3 19 -2 19 2 -1 3 2 17 6 30 7 20 12 22 46 17 20 -3 39 -3 42 2 2 4 3
2 1 -3 -1 -6 4 -19 12 -30 8 -10 14 -14 14 -9 0 6 -5 15 -12 22 -9 9 -9 12 -1
12 17 0 12 63 -6 77 -12 9 -19 9 -30 0 -12 -9 -13 -9 -7 1 5 8 0 12 -16 12
-19 0 -20 2 -8 11 15 10 -60 4 -104 -8 -12 -3 -16 -1 -12 6 12 19 -27 11 -76
-16z m33 -36 c-6 -6 -20 -6 -38 1 l-28 10 25 10 c28 11 58 -4 41 -21z m172 6
c29 -9 19 -19 -18 -19 -28 0 -35 4 -35 19 0 14 4 17 18 12 9 -4 25 -10 35 -12z"/>
<path d="M3410 5957 c0 -9 8 -21 18 -27 16 -11 16 -11 0 -6 -19 6 -34 -9 -19
-19 6 -3 7 -13 4 -22 -5 -13 -2 -15 12 -10 9 4 25 2 33 -5 13 -11 15 -10 9 5
-4 10 -7 22 -7 26 0 4 -11 22 -25 41 -16 22 -25 28 -25 17z"/>
<path d="M7150 5934 c-51 -18 -87 -43 -147 -104 -48 -47 -73 -113 -73 -189 0
-69 -18 -120 -60 -176 -47 -61 -75 -142 -67 -192 4 -20 19 -54 34 -76 57 -81
63 -93 63 -123 0 -25 6 -34 28 -42 174 -69 418 -58 605 26 51 23 68 27 96 20
20 -6 37 -6 43 0 11 11 14 118 3 152 -5 18 1 13 24 -17 17 -24 33 -43 35 -43
3 0 0 15 -5 33 -6 17 -14 104 -18 192 -8 175 -14 196 -65 211 -20 6 -31 15
-30 26 1 11 -13 22 -39 33 -61 24 -97 53 -97 78 -1 35 -34 99 -70 134 -39 38
-125 73 -178 73 -20 -1 -57 -8 -82 -16z m-178 -196 c-8 -8 -9 -4 -5 13 4 13 8
18 11 10 2 -7 -1 -18 -6 -23z m-2 -40 c-1 -13 -5 -56 -9 -97 -8 -63 -15 -82
-55 -140 -57 -84 -76 -129 -77 -183 -1 -42 -1 -42 -11 -14 -14 39 4 95 51 160
49 68 63 101 67 161 7 89 15 135 25 135 5 0 9 -10 9 -22z m614 -127 c33 -35
56 -106 56 -176 0 -29 7 -71 15 -94 9 -26 10 -39 3 -35 -11 7 -8 -15 8 -63 8
-22 -57 77 -86 132 l-21 40 22 -25 c12 -14 32 -38 45 -55 13 -16 24 -24 24
-18 0 7 -15 30 -33 50 -57 64 -67 85 -67 135 0 46 -1 47 -45 67 -58 26 -61 51
-5 51 22 0 40 5 40 10 0 17 15 11 44 -19z"/>
<path d="M5307 5912 c-21 -23 -21 -41 -1 -70 28 -41 94 -16 94 36 0 47 -61 69
-93 34z m63 -38 c0 -17 -6 -24 -20 -24 -25 0 -36 25 -20 45 16 20 40 7 40 -21z"/>
<path d="M3016 5865 c-3 -9 -2 -14 3 -10 5 3 11 0 13 -6 2 -7 10 -10 17 -8 9
3 7 10 -7 22 -18 16 -20 16 -26 2z"/>
<path d="M9690 5515 c0 -195 -3 -355 -7 -355 -4 0 -94 86 -199 191 -167 166
-192 188 -204 175 -11 -14 15 -44 199 -228 l211 -211 -2 -1051 -3 -1050 -38
-8 c-49 -10 -84 -34 -103 -69 -30 -59 -30 -59 149 -59 90 0 166 3 170 6 11 11
-15 64 -45 89 -16 14 -47 28 -69 31 l-39 7 0 791 0 791 266 266 c210 210 265
271 260 285 -6 15 -57 -32 -266 -241 l-260 -260 0 628 c0 411 -3 627 -10 627
-6 0 -10 -125 -10 -355z"/>
<path d="M3185 5819 c2 -33 -6 -36 -30 -12 -11 10 -19 12 -23 6 -4 -5 -14 -13
-22 -16 -12 -4 -11 -6 3 -6 20 -1 22 -21 5 -40 -7 -8 0 -5 16 5 26 17 27 19
10 31 -22 16 -11 17 18 2 14 -8 23 -8 31 0 15 15 16 49 2 55 -7 2 -11 -6 -10
-25z"/>
<path d="M3009 5835 c-1 -3 -3 -9 -4 -15 -1 -5 -3 -15 -4 -21 0 -5 -5 -8 -10
-5 -8 5 -23 -55 -15 -63 7 -7 34 21 28 30 -3 5 2 6 10 3 9 -3 16 -10 16 -15 0
-4 7 -6 17 -2 14 5 13 7 -5 14 -14 5 -20 14 -16 24 4 8 1 21 -5 29 -6 7 -8 16
-4 19 3 4 3 7 0 7 -4 0 -8 -2 -8 -5z"/>
<path d="M3229 5823 c-13 -16 -12 -17 4 -4 9 7 17 15 17 17 0 8 -8 3 -21 -13z"/>
<path d="M1325 5813 c-176 -39 -273 -81 -368 -158 -67 -54 -117 -141 -117
-203 0 -56 52 -153 108 -203 48 -42 150 -98 224 -124 50 -16 207 -45 250 -45
l29 0 -5 -432 c-2 -238 -8 -457 -11 -485 -5 -36 -3 -53 4 -53 8 0 11 -170 11
-595 l0 -595 -38 0 c-46 0 -119 -36 -144 -70 -10 -14 -21 -40 -24 -57 l-6 -33
247 0 247 0 -7 28 c-19 78 -89 132 -172 132 l-43 0 0 595 c0 425 3 595 11 595
7 0 9 17 4 53 -3 28 -9 246 -11 483 l-5 431 75 7 c275 25 489 158 535 333 23
86 -56 213 -176 285 -142 84 -278 118 -463 117 -74 -1 -144 -3 -155 -6z m401
-97 c78 -25 182 -84 216 -122 9 -10 27 -39 40 -64 70 -135 -32 -284 -247 -357
-75 -26 -90 -28 -250 -28 -153 0 -178 2 -245 24 -271 88 -360 285 -199 440 62
59 150 98 304 135 11 3 83 3 160 1 117 -2 153 -7 221 -29z"/>
<path d="M3380 5760 c-8 -5 -10 -10 -5 -10 6 0 17 5 25 10 8 5 11 10 5 10 -5
0 -17 -5 -25 -10z"/>
<path d="M3175 5750 c-7 -12 2 -12 30 0 19 8 19 9 -2 9 -12 1 -25 -3 -28 -9z"/>
<path d="M3420 5756 c0 -2 7 -7 16 -10 8 -3 12 -2 9 4 -6 10 -25 14 -25 6z"/>
<path d="M3007 5725 c-13 -9 -9 -11 18 -12 19 -1 36 4 38 11 6 15 -36 16 -56
1z"/>
<path d="M3374 5725 c-10 -8 -14 -15 -9 -14 21 3 29 -2 18 -9 -10 -7 -10 -12
1 -27 18 -26 46 -13 46 22 1 25 2 26 14 11 7 -10 19 -18 27 -18 7 0 -2 11 -21
25 -39 29 -49 30 -76 10z"/>
<path d="M5297 5620 c-25 -173 -24 -167 -44 -339 l-17 -154 39 -34 c35 -30 40
-32 47 -16 8 22 8 335 -1 528 l-6 140 -18 -125z"/>
<path d="M3149 5702 c-23 -21 -27 -29 -16 -29 10 0 17 6 17 13 0 7 5 16 12 20
7 5 9 0 6 -14 -7 -24 13 -45 37 -40 9 2 16 5 15 8 -1 3 3 17 9 32 8 21 7 27
-5 32 -28 11 -43 6 -75 -22z m69 -7 c-3 -3 -9 2 -12 12 -6 14 -5 15 5 6 7 -7
10 -15 7 -18z"/>
<path d="M6639 5719 c-6 -31 -6 -40 2 -45 5 -3 9 0 9 6 0 6 5 8 10 5 16 -10
12 11 -5 25 -8 7 -15 11 -16 9z"/>
<path d="M6860 5695 c0 -23 2 -24 21 -15 16 9 18 14 8 26 -17 21 -29 17 -29
-11z"/>
<path d="M8205 5646 c-7 -60 -5 -69 23 -118 34 -59 62 -146 62 -190 0 -37 17
-27 25 15 5 23 -4 62 -30 137 -21 58 -42 131 -48 163 -6 31 -14 57 -18 57 -4
0 -11 -29 -14 -64z"/>
<path d="M2960 5666 c0 -19 5 -38 10 -41 6 -4 10 8 10 29 0 19 -4 38 -10 41
-6 4 -10 -8 -10 -29z"/>
<path d="M3050 5682 c6 -13 14 -21 18 -18 3 4 -2 14 -12 24 -18 16 -18 16 -6
-6z"/>
<path d="M8685 5608 c-73 -143 -91 -228 -64 -307 17 -48 32 -24 34 56 2 62 56
259 85 315 5 9 6 19 1 22 -4 3 -29 -36 -56 -86z"/>
<path d="M2942 5590 c0 -14 2 -19 5 -12 2 6 2 18 0 25 -3 6 -5 1 -5 -13z"/>
<path d="M2973 5560 c0 -16 3 -27 7 -25 3 2 5 -10 3 -28 -3 -28 -2 -29 7 -9
13 30 17 28 35 -14 11 -26 12 -41 4 -55 -8 -15 -6 -21 8 -26 10 -3 22 -8 27
-11 5 -3 6 0 2 6 -5 9 8 12 43 12 39 0 51 4 51 15 0 18 12 19 28 3 9 -9 12 -9
12 -1 0 7 -8 14 -19 18 -22 7 -64 44 -74 65 -4 8 -14 25 -21 37 -12 22 -13 22
-29 3 -26 -30 -53 -25 -60 10 -8 39 -24 39 -24 0z m114 -67 c-3 -10 -5 -4 -5
12 0 17 2 24 5 18 2 -7 2 -21 0 -30z"/>
<path d="M3005 5580 c3 -5 16 -10 28 -9 21 0 21 1 2 9 -28 12 -37 12 -30 0z"/>
<path d="M3252 5553 c2 -12 14 -16 48 -16 34 0 46 4 48 16 3 14 -5 17 -48 17
-43 0 -51 -3 -48 -17z"/>
<path d="M3456 5543 c-6 -14 -5 -15 5 -6 7 7 10 15 7 18 -3 3 -9 -2 -12 -12z"/>
<path d="M9031 5519 c-1 -9 -15 -61 -33 -114 -23 -71 -36 -99 -50 -103 -10 -2
-30 -27 -44 -53 l-24 -49 28 0 c43 0 93 39 121 95 21 40 26 63 25 120 -1 38
-6 81 -12 95 -7 16 -11 19 -11 9z"/>
<path d="M3445 5510 c-3 -5 -1 -10 4 -10 6 0 11 5 11 10 0 6 -2 10 -4 10 -3 0
-8 -4 -11 -10z"/>
<path d="M3004 5477 c0 -13 6 -24 13 -24 9 0 9 6 1 21 -15 30 -16 30 -14 3z"/>
<path d="M3440 5479 c0 -5 5 -7 10 -4 6 3 10 8 10 11 0 2 -4 4 -10 4 -5 0 -10
-5 -10 -11z"/>
<path d="M3395 5449 c-4 -6 -17 -14 -29 -19 -17 -7 -17 -9 -3 -9 9 -1 17 -6
17 -11 0 -7 7 -7 21 0 13 7 18 17 15 27 -4 11 -2 13 9 9 8 -3 15 -1 15 4 0 13
-37 13 -45 -1z m10 -19 c3 -5 -1 -10 -10 -10 -9 0 -13 5 -10 10 3 6 8 10 10
10 2 0 7 -4 10 -10z"/>
<path d="M5387 5356 c-4 -60 -7 -155 -7 -210 l1 -101 23 45 c20 39 22 53 15
100 -4 30 -8 87 -9 125 -1 39 -4 88 -9 110 -6 33 -8 21 -14 -69z"/>
<path d="M8020 5410 c0 -11 5 -20 10 -20 6 0 10 9 10 20 0 11 -4 20 -10 20 -5
0 -10 -9 -10 -20z"/>
<path d="M3170 5395 c0 -8 2 -15 4 -15 2 0 6 7 10 15 3 8 1 15 -4 15 -6 0 -10
-7 -10 -15z"/>
<path d="M3080 5389 c0 -5 5 -7 10 -4 6 3 10 8 10 11 0 2 -4 4 -10 4 -5 0 -10
-5 -10 -11z"/>
<path d="M3128 5393 c6 -2 18 -2 25 0 6 3 1 5 -13 5 -14 0 -19 -2 -12 -5z"/>
<path d="M8826 5125 c-50 -66 -210 -125 -513 -190 -29 -7 -46 -47 -75 -178
-27 -125 -33 -395 -9 -440 29 -54 161 -106 311 -122 125 -14 303 28 312 72 2
10 0 56 -5 103 -11 111 1 372 17 367 6 -2 20 -21 31 -43 19 -37 20 -59 20
-444 0 -223 1 -393 3 -377 4 31 15 35 34 9 37 -53 101 -52 124 3 7 18 18 36
24 40 18 11 11 36 -19 66 -24 23 -38 29 -74 29 -51 0 -56 3 -50 34 6 28 31 25
75 -7 18 -13 35 -18 51 -13 22 5 25 10 20 37 -3 21 -1 29 6 24 17 -10 13 1 -6
16 -14 12 -16 12 -8 0 6 -11 4 -13 -11 -6 -10 5 -40 9 -67 10 l-47 0 6 53 c10
84 18 105 42 108 24 4 92 68 92 87 0 25 -39 74 -67 86 l-30 12 -5 151 c-5 122
-3 154 8 166 21 20 17 40 -18 112 -44 89 -44 87 -20 66 24 -21 55 -15 50 11
-2 11 -25 25 -62 38 -59 20 -59 20 -82 84 -13 35 -25 65 -27 67 -2 3 -16 -11
-31 -31z m-399 -240 c32 -8 109 -18 171 -22 98 -5 112 -8 106 -22 -3 -9 -9
-80 -11 -158 -3 -77 -9 -147 -14 -155 -6 -10 -37 -13 -121 -13 -181 1 -228 29
-228 135 0 54 17 211 25 238 5 15 2 15 72 -3z"/>
<path d="M4868 5089 c-21 -11 -38 -24 -38 -30 0 -6 4 -8 9 -4 11 6 4 -109 -9
-170 -13 -57 -12 -65 10 -65 15 0 23 14 40 70 17 59 24 70 43 71 17 0 18 2 6
7 -15 6 -15 12 -2 55 7 26 18 45 23 42 17 -10 11 4 -10 25 -24 24 -25 24 -72
-1z"/>
<path d="M8020 5050 c0 -49 -3 -61 -20 -70 -11 -6 -20 -16 -20 -22 0 -5 9 -8
20 -5 11 3 20 1 20 -4 0 -5 -7 -9 -15 -9 -8 0 -15 -5 -15 -10 0 -6 7 -13 15
-16 12 -5 15 -29 15 -130 l0 -124 -80 0 c-44 0 -80 -2 -80 -4 0 -3 4 -16 10
-30 9 -26 11 -26 110 -26 l100 0 0 123 c0 111 2 123 20 135 11 7 20 20 20 30
-1 16 -1 16 -11 0 -12 -22 -29 -23 -29 -3 0 8 -4 15 -10 15 -5 0 -10 5 -10 10
0 6 6 10 14 10 9 0 12 7 9 20 -3 12 1 22 11 26 9 3 16 10 16 15 0 4 -7 6 -15
3 -19 -8 -21 31 -2 40 10 5 10 7 0 12 -7 3 -13 21 -13 40 0 31 -3 34 -30 34
-30 0 -30 0 -30 -60z"/>
<path d="M4831 5024 c0 -11 3 -14 6 -6 3 7 2 16 -1 19 -3 4 -6 -2 -5 -13z"/>
<path d="M5010 4960 c0 -5 9 -15 21 -23 20 -14 20 -16 4 -47 l-17 -32 23 16
c26 18 49 21 49 6 0 -5 -7 -10 -16 -10 -13 0 -15 -7 -10 -31 3 -17 6 -35 6
-40 0 -5 18 -9 40 -9 31 0 40 4 40 18 0 9 3 27 6 40 5 16 2 22 -10 22 -9 0
-16 7 -16 15 0 8 5 15 10 15 23 0 8 21 -27 38 -45 23 -103 35 -103 22z"/>
<path d="M4310 4746 l0 -86 -180 0 -180 0 0 -30 0 -30 205 0 205 0 0 110 c0
61 -4 110 -9 110 -5 0 -16 3 -25 6 -14 5 -16 -6 -16 -80z"/>
<path d="M5958 4773 c-35 -15 -38 -19 -38 -57 0 -55 8 -65 62 -72 l47 -7 7 37
c7 38 -12 107 -31 112 -6 1 -27 -5 -47 -13z"/>
<path d="M4686 4727 c1 -28 2 -56 3 -61 0 -6 16 4 34 21 43 41 69 53 114 53
32 0 39 4 40 20 2 19 -4 20 -95 20 l-97 0 1 -53z"/>
<path d="M9097 4747 c-3 -8 1 -14 8 -14 7 0 11 6 8 14 -3 7 -6 13 -8 13 -2 0
-5 -6 -8 -13z"/>
<path d="M5695 4700 c-4 -7 -3 -16 3 -22 14 -14 45 -2 40 15 -6 16 -34 21 -43
7z"/>
<path d="M4990 4568 c-96 -3 -244 -4 -329 -1 l-154 6 8 -58 c4 -32 9 -64 12
-71 4 -11 50 -14 201 -16 l197 -3 3 -712 2 -713 23 0 c21 0 22 3 19 70 l-4 70
316 0 316 0 0 -70 c0 -68 1 -70 25 -70 25 0 25 1 25 85 l0 85 28 0 c115 0 207
94 188 194 -4 19 -34 77 -68 128 -52 77 -62 101 -66 145 -5 61 9 94 86 196 80
105 100 204 67 332 -18 67 -63 171 -96 216 -34 47 -33 27 1 -31 74 -125 108
-256 90 -349 -12 -63 -30 -99 -88 -176 -108 -144 -108 -193 -1 -350 43 -64 53
-87 56 -129 7 -86 -48 -143 -154 -161 l-43 -7 0 681 0 681 130 0 c108 0 130 3
130 15 0 12 -52 15 -372 17 -205 2 -452 0 -548 -4z m610 -223 l0 -144 -315 -1
-315 0 0 145 0 145 315 0 315 0 0 -145z m-572 -287 c15 -15 45 -18 237 -22
270 -6 279 -4 311 74 l23 55 1 -167 0 -168 -299 0 c-165 0 -306 3 -315 6 -14
5 -16 30 -15 178 l0 171 20 -55 c11 -30 27 -63 37 -72z m2 -363 c19 -19 36
-20 239 -23 265 -4 277 -1 309 79 l21 54 0 -162 1 -163 -315 0 -315 0 1 173 0
172 20 -55 c11 -30 28 -64 39 -75z m10 -364 c20 -13 61 -16 249 -16 161 0 232
4 248 12 12 8 30 37 41 70 l20 58 1 -137 1 -138 -315 0 -315 0 1 143 0 142 23
-59 c12 -33 33 -66 46 -75z"/>
<path d="M9320 4518 c-82 -42 -92 -102 -19 -121 19 -5 38 -13 44 -18 13 -13
42 -11 51 3 5 7 11 37 15 66 4 30 15 62 25 73 17 18 16 19 -27 19 -27 0 -63
-9 -89 -22z"/>
<path d="M9182 4430 c0 -14 2 -19 5 -12 2 6 2 18 0 25 -3 6 -5 1 -5 -13z"/>
<path d="M6527 4403 c3 -10 11 -25 18 -33 6 -8 28 -45 49 -82 20 -37 41 -70
47 -74 17 -10 5 93 -17 151 -19 48 -22 50 -62 53 -37 3 -41 1 -35 -15z"/>
<path d="M7771 4406 c-5 -6 -12 -23 -16 -39 -4 -15 -10 -27 -14 -27 -3 0 -4
-30 -3 -66 l4 -67 29 44 c16 24 29 49 29 55 0 6 14 30 30 53 17 23 28 46 25
51 -8 13 -73 9 -84 -4z"/>
<path d="M9173 4300 c0 -30 2 -43 4 -27 2 15 2 39 0 55 -2 15 -4 2 -4 -28z"/>
<path d="M9427 4305 c-11 -7 -38 -17 -60 -20 -23 -4 -54 -14 -69 -21 -15 -8
-31 -14 -35 -14 -5 0 -11 -12 -15 -27 -11 -42 27 -101 70 -109 76 -15 133 48
134 147 0 28 -2 52 -4 54 -1 2 -11 -3 -21 -10z"/>
<path d="M1897 4293 c-16 -4 -14 -9 12 -39 17 -18 37 -57 46 -86 21 -72 39
-96 79 -103 27 -5 36 -13 43 -38 l10 -32 1 40 c0 22 1 61 2 86 2 55 -27 118
-67 147 -29 20 -95 34 -126 25z"/>
<path d="M9100 4266 c0 -2 8 -10 18 -17 15 -13 16 -12 3 4 -13 16 -21 21 -21
13z"/>
<path d="M2320 4189 c0 -5 5 -7 10 -4 6 3 10 8 10 11 0 2 -4 4 -10 4 -5 0 -10
-5 -10 -11z"/>
<path d="M2402 4153 c-10 -10 -24 -19 -31 -21 -18 -4 -69 -61 -87 -97 -22 -43
-29 -119 -15 -153 11 -27 -7 -155 -63 -442 -2 -14 -3 36 -1 110 l4 135 -10
-94 c-18 -180 -27 -207 -24 -76 2 87 1 103 -4 60 l-8 -60 -1 62 c-1 34 -6 64
-10 67 -5 3 -7 -23 -5 -57 l3 -62 -19 73 c-18 71 -39 116 -26 57 l6 -30 -17
30 c-56 101 -155 146 -251 114 -32 -10 -34 -13 -17 -21 19 -11 84 -75 83 -83
0 -3 10 -32 21 -64 27 -73 59 -107 113 -121 23 -6 47 -13 54 -15 8 -2 15 13
19 43 6 40 8 43 15 24 5 -13 12 -65 15 -117 l7 -95 32 0 c32 0 32 0 39 60 4
33 4 65 0 72 -4 6 -3 8 3 5 5 -3 15 17 23 46 25 101 38 123 78 135 26 8 50 27
80 67 57 73 88 88 167 83 41 -2 61 0 59 7 -8 19 -74 57 -89 51 -9 -3 -14 -2
-11 3 3 5 -7 11 -22 14 -15 3 -35 9 -44 12 -13 5 -18 2 -19 -11 0 -11 -3 -14
-6 -6 -6 16 -46 15 -88 -2 -26 -11 -35 -21 -35 -38 0 -17 -3 -19 -9 -9 -7 11
-10 9 -16 -8 -10 -34 -17 -18 -10 22 6 31 12 36 49 46 58 14 91 50 116 127 15
45 35 77 66 109 l44 46 -26 9 c-38 15 -62 12 -73 -7 -10 -17 -10 -17 -11 0 0
9 -7 17 -15 17 -8 0 -23 -8 -33 -17z m-143 -583 c-13 -38 -25 -68 -26 -66 -2
2 4 48 14 102 16 90 18 96 27 66 7 -25 4 -47 -15 -102z"/>
<path d="M9177 4155 c-4 -8 -3 -16 1 -19 4 -3 9 4 9 15 2 23 -3 25 -10 4z"/>
<path d="M9186 4090 c8 -43 14 -51 14 -19 0 13 -5 31 -10 39 -7 11 -8 5 -4
-20z"/>
<path d="M1782 4093 c-16 -3 -22 -9 -18 -20 5 -13 4 -14 -8 -4 -17 14 -58 -3
-89 -36 -17 -19 -16 -20 38 -15 83 7 104 -3 175 -79 47 -51 73 -70 93 -72 16
-1 37 -13 49 -27 l20 -25 -15 25 c-10 17 -13 42 -10 76 6 58 -21 140 -37 114
-8 -12 -10 -9 -10 10 0 14 -9 31 -20 37 -27 17 -105 29 -96 15 3 -6 2 -13 -4
-17 -5 -3 -10 1 -10 9 0 16 -12 18 -58 9z"/>
<path d="M2164 4070 c2 -16 20 -14 24 2 3 10 2 10 -6 -1 -7 -9 -11 -10 -15 -2
-4 7 -5 8 -3 1z"/>
<path d="M2233 4010 c0 -30 2 -43 4 -27 2 15 2 39 0 55 -2 15 -4 2 -4 -28z"/>
<path d="M9201 4019 c0 -13 4 -33 9 -44 7 -14 8 -8 3 20 -7 46 -13 59 -12 24z"/>
<path d="M9261 4004 c0 -11 3 -14 6 -6 3 7 2 16 -1 19 -3 4 -6 -2 -5 -13z"/>
<path d="M9500 3989 c0 -5 5 -7 10 -4 6 3 10 8 10 11 0 2 -4 4 -10 4 -5 0 -10
-5 -10 -11z"/>
<path d="M9370 3966 c0 -2 7 -7 16 -10 8 -3 12 -2 9 4 -6 10 -25 14 -25 6z"/>
<path d="M9445 3921 c-3 -6 -26 -13 -50 -17 -45 -6 -85 -39 -85 -70 0 -20 38
-37 66 -30 24 6 25 6 9 -18 -10 -15 -13 -30 -9 -38 5 -7 7 -21 6 -30 -2 -9 8
-24 22 -33 24 -16 28 -16 63 2 34 16 103 92 103 112 0 5 -11 6 -25 3 -14 -2
-50 -1 -81 3 l-56 7 20 21 c22 24 46 97 32 97 -5 0 -11 -4 -15 -9z"/>
<path d="M9217 3913 c-4 -3 -7 -20 -6 -37 l1 -31 9 34 c10 33 8 47 -4 34z"/>
<path d="M9255 3886 c-17 -19 -36 -149 -23 -161 7 -7 9 -7 6 0 -3 6 -2 28 2
50 7 38 8 36 9 -22 0 -35 -2 -63 -6 -63 -5 0 -9 -27 -11 -60 -1 -35 2 -60 8
-60 10 0 15 26 11 66 0 11 3 41 8 68 5 28 5 64 -1 88 -6 27 -5 52 2 71 11 34
10 41 -5 23z"/>
<path d="M6580 3834 c0 -14 35 -54 47 -54 8 0 12 -4 8 -9 -3 -6 5 -15 17 -22
12 -7 28 -18 36 -25 7 -7 44 -23 81 -34 63 -18 95 -20 427 -20 376 0 409 3
486 47 36 20 85 72 80 86 -1 5 1 6 6 3 5 -3 17 4 26 16 18 21 18 21 -5 13 -42
-13 -221 -46 -304 -56 -44 -5 -179 -10 -300 -10 -182 -1 -244 3 -360 21 -77
13 -156 23 -177 24 -20 1 -34 4 -32 7 2 4 -5 9 -16 12 -11 3 -20 3 -20 1z"/>
<path d="M9201 3754 c0 -11 3 -14 6 -6 3 7 2 16 -1 19 -3 4 -6 -2 -5 -13z"/>
<path d="M8959 3716 c13 -16 51 -41 51 -33 0 2 -15 14 -32 27 -21 15 -28 17
-19 6z"/>
<path d="M9193 3690 c0 -25 2 -35 4 -22 2 12 2 32 0 45 -2 12 -4 2 -4 -23z"/>
<path d="M9299 3703 l-24 -28 28 24 c15 14 27 26 27 28 0 8 -8 1 -31 -24z"/>
<path d="M9209 3648 c-1 -50 -3 -57 -9 -33 -4 17 -8 26 -9 21 0 -6 -8 -1 -17
10 -15 17 -15 17 0 -8 9 -15 16 -36 16 -48 0 -11 7 -20 15 -20 12 0 15 14 15
70 0 87 -10 93 -11 8z"/>
<path d="M9171 3684 c0 -11 3 -14 6 -6 3 7 2 16 -1 19 -3 4 -6 -2 -5 -13z"/>
<path d="M2111 3440 c0 -8 4 -24 9 -35 5 -13 9 -14 9 -5 0 8 -4 24 -9 35 -5
13 -9 14 -9 5z"/>
<path d="M2132 3355 c0 -16 2 -22 5 -12 2 9 2 23 0 30 -3 6 -5 -1 -5 -18z"/>
<path d="M3314 3088 c-14 -29 -43 -76 -64 -104 -29 -38 -36 -54 -27 -63 20
-20 32 -11 62 50 17 33 38 68 48 77 16 14 19 14 35 -2 18 -18 21 -88 7 -174
-6 -34 -4 -47 11 -64 23 -26 103 -78 120 -78 21 0 25 32 9 87 -15 52 -16 53
-54 53 -26 0 -41 5 -45 16 -11 29 -6 34 34 34 29 0 40 4 40 15 0 11 -11 15
-40 15 -37 0 -39 2 -46 38 -4 20 -15 54 -25 74 -11 21 -19 44 -19 52 0 35 -21
23 -46 -26z"/>
<path d="M3916 2925 c5 -38 8 -98 7 -132 -2 -56 -1 -63 17 -63 28 0 32 14 21
75 -13 71 -5 115 21 115 29 0 74 -53 93 -110 19 -57 37 -70 102 -75 110 -9
137 20 72 78 -46 41 -60 45 -79 22 -16 -19 -54 -19 -69 -1 -10 12 -7 18 18 31
17 8 31 22 31 30 0 20 -10 19 -40 -5 -32 -25 -47 -25 -60 0 -6 11 -32 32 -58
46 -26 15 -55 34 -66 43 -17 15 -18 14 -10 -54z"/>
<path d="M9223 2890 c9 -70 -81 -200 -138 -200 -15 0 -36 -15 -59 -42 -59 -68
-45 -87 48 -68 72 15 100 38 116 97 10 33 27 61 57 90 24 23 43 51 43 63 0 11
-16 37 -36 58 l-35 37 4 -35z"/>
<path d="M8432 2636 c-18 -20 -37 -25 -101 -31 -100 -9 -145 0 -138 26 4 16 1
18 -21 13 -91 -22 -122 -44 -109 -78 6 -15 27 -16 194 -13 104 1 194 6 201 11
13 8 15 50 4 78 -6 15 -9 14 -30 -6z"/>
</g>
</svg>
